<svg width="191" height="52" viewBox="0 0 191 52" fill="none" xmlns="http://www.w3.org/2000/svg">
<path d="M128.864 14.488L118.208 13.96C118.144 13.96 118 14.056 117.776 14.248C117.552 14.44 117.36 14.536 117.2 14.536C117.04 14.536 116.928 14.52 116.864 14.488C114.976 13.816 114.032 13 114.032 12.04C114.032 11.56 114.304 11.32 114.848 11.32C115.168 11.32 117.232 11.576 121.04 12.088C124.88 12.568 129.008 12.808 133.424 12.808C137.84 12.808 142.08 12.568 146.144 12.088C150.464 8.344 154.752 6.472 159.008 6.472C160.768 6.472 161.648 6.888 161.648 7.72C161.648 9.896 156.72 11.704 146.864 13.144C143.6 16.408 139.648 21.736 135.008 29.128C133.28 31.848 131.568 34.472 129.872 37C126.128 42.568 123.072 45.352 120.704 45.352C119.84 45.352 119.408 44.968 119.408 44.2C119.408 43.464 119.728 42.6 120.368 41.608C120.976 40.648 121.456 40.168 121.808 40.168C121.84 40.168 121.856 40.168 121.856 40.168C122.272 40.168 122.48 40.408 122.48 40.888L122.288 41.8C122.288 41.96 122.352 42.04 122.48 42.04C124.176 42.04 127.056 38.584 131.12 31.672C132.752 28.888 134.832 25.72 137.36 22.168C139.888 18.616 142.336 15.704 144.704 13.432C139.168 14.136 133.888 14.488 128.864 14.488ZM157.856 7.384C154.784 7.384 151.6 8.856 148.304 11.8C150.672 11.448 152.704 11.016 154.4 10.504C156.128 9.992 157.344 9.512 158.048 9.064C158.752 8.616 159.104 8.232 159.104 7.912C159.104 7.56 158.688 7.384 157.856 7.384ZM145.398 37.24C145.206 37.24 145.11 37.176 145.11 37.048C145.11 36.888 145.222 36.712 145.446 36.52C146.502 35.656 147.03 34.872 147.03 34.168C147.03 33.72 146.63 33.464 145.83 33.4C144.39 33.432 142.662 34.472 140.646 36.52C138.662 38.568 137.67 40.104 137.67 41.128C137.67 41.48 137.862 41.656 138.246 41.656C138.662 41.656 139.206 41.384 139.878 40.84C140.486 40.456 141.622 39.496 143.286 37.96C143.67 37.576 144.038 37.384 144.39 37.384C144.838 37.384 145.062 37.592 145.062 38.008C145.062 38.168 145.014 38.296 144.918 38.392C144.822 38.488 144.646 38.696 144.39 39.016C144.134 39.304 143.91 39.576 143.718 39.832C143.142 40.664 142.854 41.208 142.854 41.464C142.854 42.104 143.11 42.424 143.622 42.424C144.294 42.424 145.558 41.816 147.414 40.6C149.27 39.352 150.966 38.104 152.502 36.856L154.806 35.032C155.03 34.872 155.238 34.792 155.43 34.792C155.622 34.792 155.718 34.904 155.718 35.128V35.224C153.254 37.304 150.646 39.256 147.894 41.08C145.174 42.904 143.382 43.816 142.518 43.816C141.494 43.816 140.982 43.272 140.982 42.184C140.982 41.928 141.03 41.688 141.126 41.464C141.222 41.24 141.27 41.08 141.27 40.984C141.27 40.888 141.238 40.824 141.174 40.792C141.078 40.792 140.454 41.224 139.302 42.088C138.182 42.952 137.19 43.384 136.326 43.384C135.494 43.384 135.078 42.936 135.078 42.04C135.078 41.144 135.67 39.944 136.854 38.44C138.07 36.904 139.686 35.512 141.702 34.264C143.718 33.016 145.686 32.392 147.606 32.392C148.054 32.392 148.422 32.504 148.71 32.728C149.03 32.952 149.19 33.304 149.19 33.784C149.19 34.232 148.726 34.92 147.798 35.848C146.87 36.776 146.07 37.24 145.398 37.24ZM149.757 43.048C149.533 43.048 149.421 42.936 149.421 42.712C149.421 42.584 149.581 42.36 149.901 42.04C150.765 41.08 152.253 39.784 154.365 38.152C154.781 36.264 154.989 35.208 154.989 34.984C154.989 34.76 154.877 34.568 154.653 34.408C154.461 34.248 154.365 34.136 154.365 34.072C154.365 33.976 154.461 33.832 154.653 33.64C155.517 33.032 156.125 32.728 156.477 32.728C156.957 32.728 157.197 32.984 157.197 33.496C157.197 33.752 156.941 34.776 156.429 36.568C160.397 33.688 162.701 32.248 163.341 32.248C163.533 32.248 163.709 32.344 163.869 32.536C164.029 32.696 164.109 32.84 164.109 32.968C164.109 33.032 163.341 33.496 161.805 34.36C160.269 35.224 158.365 36.456 156.093 38.056C155.869 39.08 155.757 39.88 155.757 40.456C155.757 41.512 156.029 42.04 156.573 42.04C156.989 42.04 158.349 41.336 160.653 39.928C162.509 38.648 164.349 37.272 166.173 35.8L167.085 35.032C167.309 34.872 167.501 34.792 167.661 34.792C167.853 34.792 167.949 34.92 167.949 35.176V35.224C161.421 40.6 157.405 43.288 155.901 43.288C154.621 43.288 153.981 42.504 153.981 40.936C153.981 40.648 154.013 40.184 154.077 39.544C152.733 40.536 151.549 41.544 150.525 42.568C150.141 42.888 149.885 43.048 149.757 43.048ZM172.168 28.504C172.488 28.504 172.728 28.6 172.888 28.792C173.08 28.984 173.176 29.256 173.176 29.608C173.176 29.96 172.936 30.408 172.456 30.952C171.976 31.496 171.56 31.768 171.208 31.768C170.856 31.768 170.6 31.672 170.44 31.48C170.28 31.256 170.2 31.016 170.2 30.76C170.2 30.472 170.456 30.024 170.968 29.416C171.48 28.808 171.88 28.504 172.168 28.504ZM176.152 34.984C176.408 34.824 176.6 34.744 176.728 34.744C176.888 34.744 176.968 34.84 176.968 35.032V35.176C177.096 35.176 176.232 35.88 174.376 37.288C172.552 38.696 170.584 40.104 168.472 41.512C166.392 42.92 165.08 43.624 164.536 43.624C163.608 43.624 163.144 43.24 163.144 42.472C163.144 41.544 163.944 39.8 165.544 37.24C167.144 34.648 168.312 33.352 169.048 33.352C169.592 33.352 169.864 33.56 169.864 33.976C169.864 34.392 169.128 35.528 167.656 37.384C166.184 39.24 165.448 40.568 165.448 41.368C165.448 41.816 165.608 42.04 165.928 42.04C166.28 42.04 167.128 41.592 168.472 40.696C170.872 39.096 173.08 37.48 175.096 35.848L176.152 34.984Z" fill="#FEBB1B"/>
<path d="M11.384 29.848C11.384 30.648 12.84 31.416 15.752 32.152C17.416 32.536 19.432 32.856 21.8 33.112C18.824 30.456 15.88 29.128 12.968 29.128C11.912 29.128 11.384 29.368 11.384 29.848ZM30.392 42.664C31.064 42.664 32.728 40.024 35.384 34.744C31.8 34.808 29.56 34.84 28.664 34.84C27.8 34.84 26.568 34.808 24.968 34.744C26.856 37.016 28.392 39.432 29.576 41.992C29.768 42.44 30.04 42.664 30.392 42.664ZM45.416 10.168C44.36 10.168 42.952 11.304 41.192 13.576C39.432 15.816 37.096 19 34.184 23.128C31.304 27.256 28.616 30.68 26.12 33.4C28.36 33.464 30.312 33.496 31.976 33.496C33.672 33.496 35.032 33.464 36.056 33.4C38.328 28.92 40.536 24.184 42.68 19.192C44.856 14.2 45.944 11.336 45.944 10.6C45.944 10.312 45.768 10.168 45.416 10.168ZM38.648 33.304L48.632 32.584C48.888 32.584 49.016 32.712 49.016 32.968C49.016 33.224 48.792 33.496 48.344 33.784C47.928 34.072 47.096 34.264 45.848 34.36C44.6 34.456 41.96 34.552 37.928 34.648C34.664 41.016 32.36 44.2 31.016 44.2C30.12 44.2 29.48 43.8 29.096 43C27.688 40.152 26.04 37.656 24.152 35.512L22.76 36.856C18.024 41.272 12.504 43.48 6.2 43.48C4.6 43.48 3.208 43.352 2.024 43.096C0.808 42.872 0.2 42.552 0.2 42.136C0.2 41.848 0.376 41.704 0.728 41.704C0.952 41.704 1.224 41.768 1.544 41.896C2.504 42.28 4.312 42.472 6.968 42.472C11.736 42.472 16.248 40.6 20.504 36.856C22.04 35.416 22.824 34.68 22.856 34.648C19.848 34.424 17.32 34.024 15.272 33.448C11.624 32.424 9.8 31.208 9.8 29.8C9.8 29.32 10.056 28.92 10.568 28.6C11.112 28.28 11.816 28.12 12.68 28.12C16.488 28.12 20.104 29.832 23.528 33.256C23.816 33.256 24.024 33.272 24.152 33.304C27 30.232 30.472 25.88 34.568 20.248C36.008 18.296 37.448 16.408 38.888 14.584C41.896 10.808 44.36 8.92 46.28 8.92C47.528 8.92 48.152 9.464 48.152 10.552C48.152 11.288 47.112 14.168 45.032 19.192C42.984 24.184 40.856 28.888 38.648 33.304ZM59.3746 35.032C59.5986 34.872 59.8066 34.792 59.9986 34.792C60.1906 34.792 60.2866 34.904 60.2866 35.128V35.224C57.8866 37.144 55.5186 38.952 53.1826 40.648C50.8466 42.312 49.1346 43.144 48.0466 43.144C47.2466 43.144 46.8466 42.712 46.8466 41.848C46.8466 40.984 47.2306 40.12 47.9986 39.256C48.7666 38.392 49.5186 37.64 50.2546 37C51.0226 36.36 51.4066 35.944 51.4066 35.752C51.4066 35.528 51.2786 35.288 51.0226 35.032C50.7986 34.744 50.6066 34.552 50.4466 34.456C49.9026 35 48.7186 35.992 46.8946 37.432L46.7026 36.712C48.7186 35.112 49.8866 34.04 50.2066 33.496V33.064C50.2066 32.264 50.2866 31.72 50.4466 31.432C50.6066 31.144 50.9906 30.744 51.5986 30.232C52.2066 29.72 52.6226 29.464 52.8466 29.464C53.0706 29.464 53.2626 29.544 53.4226 29.704C53.6146 29.864 53.7106 30.024 53.7106 30.184C53.7106 30.344 53.6466 30.536 53.5186 30.76C53.4226 30.952 53.3106 31.128 53.1826 31.288C53.0866 31.416 52.9426 31.592 52.7506 31.816C52.5586 32.008 52.4306 32.152 52.3666 32.248C52.3346 32.312 52.2866 32.44 52.2226 32.632C52.1906 32.824 52.0946 32.984 51.9346 33.112C51.7746 33.24 51.6946 33.4 51.6946 33.592C51.6946 33.784 51.8226 34.216 52.0786 34.888C52.3346 35.528 52.4626 36.008 52.4626 36.328C52.4626 36.616 51.8706 37.336 50.6866 38.488C49.5026 39.608 48.9106 40.52 48.9106 41.224C48.9106 41.608 49.0866 41.8 49.4386 41.8C49.8866 41.8 50.7186 41.4 51.9346 40.6L52.5106 40.216C54.5906 38.776 56.5426 37.32 58.3666 35.848L59.3746 35.032ZM85.2324 22.648L78.3684 22.312C75.5524 22.312 72.7524 22.424 69.9684 22.648L70.2084 23.608C70.2084 23.96 69.1684 25.304 67.0884 27.64C65.0084 29.944 62.9284 32.472 60.8484 35.224C58.7684 37.944 57.7284 39.96 57.7284 41.272C57.7284 41.784 57.9044 42.04 58.2564 42.04C58.6404 42.04 59.4884 41.592 60.8004 40.696C63.2324 39.096 65.4564 37.48 67.4724 35.848L68.5284 34.984C68.7524 34.824 68.9444 34.744 69.1044 34.744C69.2644 34.744 69.3444 34.84 69.3444 35.032V35.176C69.4724 35.176 68.6084 35.88 66.7524 37.288C64.9284 38.696 62.9604 40.104 60.8484 41.512C58.7684 42.92 57.4564 43.624 56.9124 43.624C55.9844 43.624 55.5204 43.208 55.5204 42.376C55.5204 41.16 56.1924 39.48 57.5364 37.336C58.9124 35.192 60.4004 33.176 62.0004 31.288C63.6324 29.368 65.1684 27.56 66.6084 25.864C68.0804 24.168 68.8804 23.128 69.0084 22.744C65.4884 23.064 62.7844 23.448 60.8964 23.896L59.9364 24.088C59.6804 24.12 59.5524 24.36 59.5524 24.808C59.5524 25 59.3284 25.096 58.8804 25.096C58.4324 25.096 57.8724 25 57.2004 24.808C56.5604 24.584 56.2404 24.28 56.2404 23.896C56.2404 23.512 56.5604 23.256 57.2004 23.128C61.9364 22.296 65.2964 21.8 67.2804 21.64C69.2644 21.448 70.5764 21.336 71.2164 21.304C71.8884 21.24 72.9124 21.192 74.2884 21.16C75.6964 21.128 76.6404 21.112 77.1204 21.112C78.5604 21.048 80.2404 21.016 82.1604 21.016C84.1124 21.016 85.2964 21.096 85.7124 21.256C86.1284 21.416 86.3364 21.72 86.3364 22.168C86.3364 22.488 85.9684 22.648 85.2324 22.648ZM73.5901 28.504C73.9101 28.504 74.1501 28.6 74.3101 28.792C74.5021 28.984 74.5981 29.256 74.5981 29.608C74.5981 29.96 74.3581 30.408 73.8781 30.952C73.3981 31.496 72.9821 31.768 72.6301 31.768C72.2781 31.768 72.0221 31.672 71.8621 31.48C71.7021 31.256 71.6221 31.016 71.6221 30.76C71.6221 30.472 71.8781 30.024 72.3901 29.416C72.9021 28.808 73.3021 28.504 73.5901 28.504ZM77.5741 34.984C77.8301 34.824 78.0221 34.744 78.1501 34.744C78.3101 34.744 78.3901 34.84 78.3901 35.032V35.176C78.5181 35.176 77.6541 35.88 75.7981 37.288C73.9741 38.696 72.0061 40.104 69.8941 41.512C67.8141 42.92 66.5021 43.624 65.9581 43.624C65.0301 43.624 64.5661 43.24 64.5661 42.472C64.5661 41.544 65.3661 39.8 66.9661 37.24C68.5661 34.648 69.7341 33.352 70.4701 33.352C71.0141 33.352 71.2861 33.56 71.2861 33.976C71.2861 34.392 70.5501 35.528 69.0781 37.384C67.6061 39.24 66.8701 40.568 66.8701 41.368C66.8701 41.816 67.0301 42.04 67.3501 42.04C67.7021 42.04 68.5501 41.592 69.8941 40.696C72.2941 39.096 74.5021 37.48 76.5181 35.848L77.5741 34.984ZM87.005 35.032C87.261 34.872 87.469 34.792 87.629 34.792C87.821 34.792 87.917 34.904 87.917 35.128V35.224C85.453 37.304 82.845 39.256 80.093 41.08C77.373 42.904 75.645 43.816 74.909 43.816C74.173 43.816 73.549 43.672 73.037 43.384C72.557 43.128 72.317 42.824 72.317 42.472C72.317 42.12 72.413 41.832 72.605 41.608C72.797 41.352 72.973 41.224 73.133 41.224C73.293 41.224 73.549 41.48 73.901 41.992C74.285 42.472 74.653 42.712 75.005 42.712C75.741 42.712 76.317 41.928 76.733 40.36C77.149 38.792 77.357 37.72 77.357 37.144C77.357 36.536 77.309 36.232 77.213 36.232C77.149 36.232 77.085 36.264 77.021 36.328L75.629 37.432L75.437 36.712C77.453 35.112 78.621 34.04 78.941 33.496C79.133 32.984 79.405 32.728 79.757 32.728C79.981 32.728 80.093 32.808 80.093 32.968C80.093 33.128 79.981 33.48 79.757 34.024C79.533 34.536 79.229 35.72 78.845 37.576C78.493 39.432 78.317 40.504 78.317 40.792C78.317 41.08 78.397 41.224 78.557 41.224C80.797 39.848 83.165 38.136 85.661 36.088L87.005 35.032ZM112.936 22.648L106.072 22.312C103.256 22.312 100.456 22.424 97.6715 22.648L97.9115 23.608C97.9115 23.96 96.8715 25.304 94.7915 27.64C92.7115 29.944 90.6315 32.472 88.5515 35.224C86.4715 37.944 85.4315 39.96 85.4315 41.272C85.4315 41.784 85.6075 42.04 85.9595 42.04C86.3435 42.04 87.1915 41.592 88.5035 40.696C90.9355 39.096 93.1595 37.48 95.1755 35.848L96.2315 34.984C96.4555 34.824 96.6475 34.744 96.8075 34.744C96.9675 34.744 97.0475 34.84 97.0475 35.032V35.176C97.1755 35.176 96.3115 35.88 94.4555 37.288C92.6315 38.696 90.6635 40.104 88.5515 41.512C86.4715 42.92 85.1595 43.624 84.6155 43.624C83.6875 43.624 83.2235 43.208 83.2235 42.376C83.2235 41.16 83.8955 39.48 85.2395 37.336C86.6155 35.192 88.1035 33.176 89.7035 31.288C91.3355 29.368 92.8715 27.56 94.3115 25.864C95.7835 24.168 96.5835 23.128 96.7115 22.744C93.1915 23.064 90.4875 23.448 88.5995 23.896L87.6395 24.088C87.3835 24.12 87.2555 24.36 87.2555 24.808C87.2555 25 87.0315 25.096 86.5835 25.096C86.1355 25.096 85.5755 25 84.9035 24.808C84.2635 24.584 83.9435 24.28 83.9435 23.896C83.9435 23.512 84.2635 23.256 84.9035 23.128C89.6395 22.296 92.9995 21.8 94.9835 21.64C96.9675 21.448 98.2795 21.336 98.9195 21.304C99.5915 21.24 100.616 21.192 101.992 21.16C103.4 21.128 104.344 21.112 104.824 21.112C106.264 21.048 107.944 21.016 109.864 21.016C111.816 21.016 113 21.096 113.416 21.256C113.832 21.416 114.04 21.72 114.04 22.168C114.04 22.488 113.672 22.648 112.936 22.648Z" fill="black"/>
</svg>
