<?xml version="1.0" standalone="no"?>
<!DOCTYPE svg PUBLIC "-//W3C//DTD SVG 20010904//EN"
 "http://www.w3.org/TR/2001/REC-SVG-20010904/DTD/svg10.dtd">
<svg version="1.0" xmlns="http://www.w3.org/2000/svg"
 width="646.000000pt" height="144.000000pt" viewBox="0 0 646.000000 144.000000"
 preserveAspectRatio="xMidYMid meet">
<metadata>
Created by potrace 1.15, written by Peter Selinger 2001-2017
</metadata>
<g transform="translate(0.000000,144.000000) scale(0.100000,-0.100000)"
fill="#000000" stroke="none">
<path d="M1534 1371 c-29 -18 -84 -108 -84 -138 0 -10 -48 -13 -212 -15 l-213
-3 0 -30 0 -30 203 -3 c187 -2 203 -4 198 -20 -26 -85 -35 -440 -15 -579 16
-103 16 -100 -27 -173 -101 -168 -227 -225 -291 -130 -27 38 -28 73 -11 211 9
79 9 102 -2 129 -16 40 -60 60 -128 60 l-49 0 -7 48 c-8 62 -39 112 -69 112
-46 0 -116 -107 -117 -177 0 -38 29 -63 74 -63 27 0 28 -2 23 -34 -8 -49 -74
-177 -125 -242 -55 -70 -118 -102 -163 -83 -40 16 -70 78 -77 156 -5 67 -18
86 -53 81 -18 -2 -25 -15 -39 -64 -35 -131 -119 -202 -192 -163 -23 13 -48 67
-48 107 0 88 67 199 137 229 47 19 113 16 152 -8 47 -28 76 -22 76 16 0 26 -7
34 -55 58 -46 24 -64 28 -111 24 -155 -13 -269 -147 -271 -317 -1 -122 58
-195 157 -194 62 1 108 26 159 85 l33 40 13 -31 c7 -16 30 -46 51 -65 34 -30
46 -35 89 -35 64 0 114 25 177 89 76 77 173 263 173 333 0 17 7 19 58 16 l57
-3 -1 -55 c0 -30 -4 -89 -8 -130 -17 -157 51 -253 179 -253 85 0 162 51 236
156 l48 69 16 -38 c9 -21 33 -61 55 -90 66 -87 166 -117 248 -75 37 19 105 84
135 130 12 18 17 21 21 10 32 -109 73 -159 145 -179 118 -32 245 81 372 330
l42 83 33 -64 c60 -115 66 -172 23 -218 -26 -28 -81 -28 -126 0 -33 20 -35 20
-53 4 -27 -24 -26 -29 16 -74 66 -73 209 -96 326 -51 67 25 153 98 200 171 17
27 33 49 35 49 1 0 14 -22 28 -50 74 -147 199 -200 306 -131 55 35 86 69 134
145 59 92 78 142 65 166 -21 39 -51 21 -92 -53 -122 -224 -223 -267 -318 -136
-16 23 -38 65 -49 94 l-20 53 29 54 c36 66 104 267 130 385 11 49 23 132 27
186 l6 97 344 0 345 0 -6 -27 c-27 -129 -33 -417 -11 -568 25 -173 63 -271
138 -352 48 -53 89 -73 148 -73 56 0 103 25 164 86 l52 53 17 -40 c27 -61 77
-93 141 -93 62 1 108 26 159 85 l33 40 12 -28 c29 -67 79 -103 144 -103 117 0
211 96 328 332 24 49 46 88 49 88 4 0 12 -21 19 -47 7 -27 27 -79 46 -118 l34
-70 -45 -83 c-52 -97 -54 -127 -9 -127 26 0 34 7 60 57 17 31 34 60 37 64 4 3
29 -13 55 -36 26 -23 59 -48 73 -55 102 -52 241 -7 332 109 22 28 43 49 47 46
3 -3 13 -27 23 -55 30 -91 117 -145 202 -125 77 17 164 101 244 233 51 84 60
114 40 133 -27 27 -51 8 -98 -78 -59 -108 -151 -204 -203 -214 -47 -8 -83 14
-109 67 -20 37 -23 152 -9 309 9 95 1 120 -33 120 -30 0 -34 -12 -46 -128 -12
-117 -48 -190 -135 -278 -110 -110 -214 -109 -304 5 l-31 38 84 126 c46 69
113 164 150 211 74 95 83 129 34 134 -24 3 -37 -10 -115 -115 -48 -65 -110
-153 -138 -195 -27 -43 -53 -78 -56 -78 -10 0 -58 136 -79 222 -22 93 -25 98
-55 98 -20 0 -35 -23 -114 -183 -105 -210 -162 -290 -228 -319 -38 -17 -49
-18 -74 -7 -39 15 -69 75 -76 148 -8 74 -18 93 -50 89 -23 -3 -28 -11 -43 -64
-35 -131 -119 -202 -192 -163 -23 13 -48 67 -48 107 0 88 67 199 137 229 47
19 113 16 152 -8 47 -28 76 -22 76 16 0 26 -7 34 -55 58 -46 24 -64 28 -111
24 -119 -10 -212 -89 -300 -257 -18 -36 -59 -91 -91 -122 -51 -53 -60 -58 -99
-58 -38 0 -48 5 -90 49 -29 31 -55 70 -68 107 l-22 58 39 85 c75 162 134 384
148 559 l7 82 272 0 c236 0 274 2 286 16 9 11 10 20 2 32 -9 15 -43 18 -289
22 -269 5 -279 6 -282 25 -16 96 -51 145 -102 145 -54 0 -89 -29 -123 -102
l-32 -68 -352 0 -352 0 -11 57 c-16 73 -53 113 -106 113 -30 0 -44 -7 -74 -39
-21 -22 -44 -59 -52 -83 l-15 -43 -208 -5 c-180 -4 -209 -7 -218 -22 -8 -12
-7 -21 2 -32 11 -14 43 -16 209 -16 l195 0 -7 -47 c-27 -197 -29 -347 -4 -569
l11 -101 -29 -54 c-63 -115 -181 -209 -263 -209 l-34 0 20 23 c34 37 46 68 47
122 0 43 -10 72 -63 184 -59 121 -64 138 -62 192 2 70 -11 99 -44 99 -40 0
-54 -34 -52 -125 2 -76 0 -85 -41 -169 -136 -283 -277 -385 -359 -260 -22 34
-28 162 -15 304 11 116 5 140 -33 140 -29 0 -32 -10 -43 -120 -10 -91 -27
-134 -93 -232 -113 -166 -220 -157 -304 24 -14 29 -25 59 -25 66 0 8 15 46 34
85 69 145 127 358 147 539 l12 108 276 2 276 3 0 30 0 30 -282 3 c-261 2 -283
4 -283 20 0 36 -22 92 -46 122 -31 36 -73 40 -120 11z m92 -303 c-10 -115 -41
-263 -82 -388 -41 -128 -49 -141 -60 -109 -20 59 -1 533 22 571 3 4 32 8 66 8
l61 0 -7 -82z m1488 15 c-9 -119 -44 -284 -86 -410 -22 -68 -44 -123 -48 -123
-29 0 -24 402 6 568 l6 32 64 0 63 0 -5 -67z m966 20 c-1 -113 -46 -326 -101
-478 -30 -82 -34 -87 -40 -60 -11 49 -10 373 1 465 16 126 12 120 81 120 l59
0 0 -47z"/>
<path d="M1936 1019 c-15 -17 -26 -43 -26 -59 0 -16 11 -42 26 -59 54 -64 159
-26 159 57 0 58 -34 92 -91 92 -35 0 -47 -5 -68 -31z"/>
<path d="M5906 1019 c-15 -17 -26 -43 -26 -59 0 -16 11 -42 26 -59 54 -64 159
-26 159 57 0 58 -34 92 -91 92 -35 0 -47 -5 -68 -31z"/>
</g>
</svg>
